<?xml version="1.0" encoding="UTF-8" standalone="no"?>
<!DOCTYPE svg PUBLIC "-//W3C//DTD SVG 1.1//EN" "http://www.w3.org/Graphics/SVG/1.1/DTD/svg11.dtd">
<svg width="100%" height="100%" viewBox="0 0 909 300" version="1.1" xmlns="http://www.w3.org/2000/svg" xmlns:xlink="http://www.w3.org/1999/xlink" xml:space="preserve" xmlns:serif="http://www.serif.com/" style="fill-rule:evenodd;clip-rule:evenodd;stroke-linecap:round;stroke-linejoin:round;stroke-miterlimit:1.5;">
    <g transform="matrix(1,0,0,1,-23.231,-190.026)">
        <g transform="matrix(1,0,0,1,-62.4,-30.4)">
            <g transform="matrix(1.18227,0,0,1.04169,-190.122,-17.3983)">
                <path d="M486.99,241.064C486.99,234.022 481.952,228.305 475.748,228.305L244.482,228.305C238.278,228.305 233.24,234.022 233.24,241.064L233.24,503.539C233.24,510.58 238.278,516.297 244.482,516.297L475.748,516.297C481.952,516.297 486.99,510.58 486.99,503.539L486.99,241.064Z" style="fill:white;fill-opacity:0;"/>
            </g>
            <g transform="matrix(1.02615,0,0,1.04169,-133.9,-17.3983)">
                <path d="M486.99,264.913C486.99,244.709 470.337,228.305 449.827,228.305L270.403,228.305C249.893,228.305 233.24,244.709 233.24,264.913L233.24,479.689C233.24,499.894 249.893,516.297 270.403,516.297L449.827,516.297C470.337,516.297 486.99,499.894 486.99,479.689L486.99,264.913Z" style="fill:rgb(86,100,240);"/>
            </g>
            <g transform="matrix(0.866291,0,0,1.93041,-55.4867,-372.347)">
                <path d="M375.738,429.561C375.738,427.525 372.055,425.873 367.52,425.873L304.582,425.873C300.046,425.873 296.364,427.525 296.364,429.561C296.364,431.596 300.046,433.248 304.582,433.248L367.52,433.248C372.055,433.248 375.738,431.596 375.738,429.561Z" style="fill-opacity:0.4;"/>
            </g>
            <g transform="matrix(0.821361,0,0,1.40753,-40.3879,-149.663)">
                <path d="M375.738,429.561C375.738,427.525 372.906,425.873 369.418,425.873L302.683,425.873C299.196,425.873 296.364,427.525 296.364,429.561C296.364,431.596 299.196,433.248 302.683,433.248L369.418,433.248C372.906,433.248 375.738,431.596 375.738,429.561Z" style="fill:white;"/>
            </g>
            <g transform="matrix(1.58113,0,0,1.58113,-302.803,-211.876)">
                <g transform="matrix(0.726621,0,0,0.815389,69.029,118.35)">
                    <text x="312.91px" y="326.857px" style="font-family:'BaskOldFace', 'Baskerville Old Face', serif;font-size:144px;fill-opacity:0.41;">Q</text>
                </g>
                <g transform="matrix(0.701546,0,0,0.787251,78.3983,124.406)">
                    <text x="312.91px" y="326.857px" style="font-family:'BaskOldFace', 'Baskerville Old Face', serif;font-size:144px;fill:white;">Q</text>
                </g>
            </g>
        </g>
        <g transform="matrix(1,0,0,1,546.6,-30.4)">
            <g transform="matrix(1.18227,0,0,1.04169,-190.122,-17.3983)">
                <path d="M486.99,241.064C486.99,234.022 481.952,228.305 475.748,228.305L244.482,228.305C238.278,228.305 233.24,234.022 233.24,241.064L233.24,503.539C233.24,510.58 238.278,516.297 244.482,516.297L475.748,516.297C481.952,516.297 486.99,510.58 486.99,503.539L486.99,241.064Z" style="fill:white;fill-opacity:0;"/>
            </g>
            <g transform="matrix(1.02615,0,0,1.04169,-133.9,-17.3983)">
                <path d="M486.99,243.216C486.99,234.986 480.207,228.305 471.853,228.305L248.377,228.305C240.023,228.305 233.24,234.986 233.24,243.216L233.24,501.386C233.24,509.616 240.023,516.297 248.377,516.297L471.853,516.297C480.207,516.297 486.99,509.616 486.99,501.386L486.99,243.216Z" style="fill:rgb(129,140,240);"/>
            </g>
            <g transform="matrix(0.866291,0,0,1.93041,-55.4867,-372.347)">
                <path d="M375.738,429.561C375.738,427.525 372.055,425.873 367.52,425.873L304.582,425.873C300.046,425.873 296.364,427.525 296.364,429.561C296.364,431.596 300.046,433.248 304.582,433.248L367.52,433.248C372.055,433.248 375.738,431.596 375.738,429.561Z" style="fill-opacity:0.4;"/>
            </g>
            <g transform="matrix(0.821361,0,0,1.40753,-40.3879,-149.663)">
                <path d="M375.738,429.561C375.738,427.525 372.906,425.873 369.418,425.873L302.683,425.873C299.196,425.873 296.364,427.525 296.364,429.561C296.364,431.596 299.196,433.248 302.683,433.248L369.418,433.248C372.906,433.248 375.738,431.596 375.738,429.561Z" style="fill:white;"/>
            </g>
            <g transform="matrix(1.58113,0,0,1.58113,-302.803,-211.876)">
                <g transform="matrix(0.726621,0,0,0.815389,69.029,118.35)">
                    <text x="312.91px" y="326.857px" style="font-family:'BaskOldFace', 'Baskerville Old Face', serif;font-size:144px;fill-opacity:0.41;">Q</text>
                </g>
                <g transform="matrix(0.701546,0,0,0.787251,78.3983,124.406)">
                    <text x="312.91px" y="326.857px" style="font-family:'BaskOldFace', 'Baskerville Old Face', serif;font-size:144px;fill:white;">Q</text>
                </g>
            </g>
        </g>
        <g transform="matrix(1.40753,0,0,1.40753,6.16853,-172.199)">
            <g transform="matrix(1.41878,0,0,1.38598,-156.839,-130.167)">
                <path d="M412.445,311.878C412.445,303.348 405.393,297.145 396.706,297.145L303.064,297.145C294.378,297.145 287.326,303.348 287.326,311.878L282.913,418.598C282.913,427.128 289.965,431.167 298.651,431.167L401.119,431.167C409.806,431.167 416.858,427.128 416.858,418.598L412.445,311.878Z" style="fill:url(#_Linear1);"/>
            </g>
            <g transform="matrix(1.36099,0,0,1.3029,-136.893,-124.359)">
                <path d="M412.445,311.878C412.445,303.348 405.393,297.145 396.706,297.145L303.064,297.145C294.378,297.145 287.326,303.348 287.326,311.878L282.913,424.37C282.913,432.9 289.965,439.825 298.651,439.825L401.119,439.825C409.806,439.825 416.858,432.9 416.858,424.37L412.445,311.878Z" style="fill:white;stroke:white;stroke-width:4.91px;"/>
            </g>
            <g transform="matrix(1.36099,0,0,1.31829,-136.893,-131.125)">
                <path d="M412.445,311.878C412.445,303.348 405.393,297.145 396.706,297.145L303.064,297.145C294.378,297.145 287.326,303.348 287.326,311.878L282.913,424.37C282.913,432.9 289.965,439.825 298.651,439.825L401.119,439.825C409.806,439.825 416.858,432.9 416.858,424.37L412.445,311.878Z" style="fill:url(#_Linear2);"/>
            </g>
            <g transform="matrix(0.61547,0,0,1.37149,132.32,-170.617)">
                <path d="M375.738,429.561C375.738,427.525 372.055,425.873 367.52,425.873L304.582,425.873C300.046,425.873 296.364,427.525 296.364,429.561C296.364,431.596 300.046,433.248 304.582,433.248L367.52,433.248C372.055,433.248 375.738,431.596 375.738,429.561Z" style="fill-opacity:0.4;"/>
            </g>
            <g transform="matrix(0.583549,0,0,1,143.195,-12.4076)">
                <path d="M375.738,429.561C375.738,427.525 372.906,425.873 369.418,425.873L302.683,425.873C299.196,425.873 296.364,427.525 296.364,429.561C296.364,431.596 299.196,433.248 302.683,433.248L369.418,433.248C372.906,433.248 375.738,431.596 375.738,429.561Z" style="fill:white;"/>
            </g>
            <g transform="matrix(1,0,0,1,0,-9.21928)">
                <g transform="matrix(0.726621,0,0,0.815389,69.029,118.35)">
                    <text x="312.91px" y="326.857px" style="font-family:'BaskOldFace', 'Baskerville Old Face', serif;font-size:144px;fill-opacity:0.41;">Q</text>
                </g>
                <g transform="matrix(0.701546,0,0,0.787251,78.3983,124.406)">
                    <text x="312.91px" y="326.857px" style="font-family:'BaskOldFace', 'Baskerville Old Face', serif;font-size:144px;fill:white;">Q</text>
                </g>
            </g>
        </g>
    </g>
    <defs>
        <linearGradient id="_Linear1" x1="0" y1="0" x2="1" y2="0" gradientUnits="userSpaceOnUse" gradientTransform="matrix(0.495093,22.8063,-22.279,0.506809,351.494,419.217)"><stop offset="0" style="stop-color:rgb(92,107,249);stop-opacity:1"/><stop offset="1" style="stop-color:rgb(0,20,222);stop-opacity:1"/></linearGradient>
        <linearGradient id="_Linear2" x1="0" y1="0" x2="1" y2="0" gradientUnits="userSpaceOnUse" gradientTransform="matrix(0.96771,120.22,-116.448,0.999055,357.916,317.103)"><stop offset="0" style="stop-color:rgb(92,106,245);stop-opacity:1"/><stop offset="1" style="stop-color:rgb(54,69,211);stop-opacity:1"/></linearGradient>
    </defs>
</svg>
